<svg width="34" height="35" viewBox="0 0 34 35" fill="none" xmlns="http://www.w3.org/2000/svg">
<rect y="0.717285" width="34" height="34" fill="white"/>
<path fill-rule="evenodd" clip-rule="evenodd" d="M4.25 10.2798C4.25 9.69298 4.7257 9.21729 5.3125 9.21729H28.6875C29.2743 9.21729 29.75 9.69298 29.75 10.2798C29.75 10.8666 29.2743 11.3423 28.6875 11.3423H5.3125C4.7257 11.3423 4.25 10.8666 4.25 10.2798ZM4.25 17.7173C4.25 17.1305 4.7257 16.6548 5.3125 16.6548H28.6875C29.2743 16.6548 29.75 17.1305 29.75 17.7173C29.75 18.3041 29.2743 18.7798 28.6875 18.7798H5.3125C4.7257 18.7798 4.25 18.3041 4.25 17.7173ZM15.9375 25.1548C15.9375 24.568 16.4132 24.0923 17 24.0923H28.6875C29.2743 24.0923 29.75 24.568 29.75 25.1548C29.75 25.7416 29.2743 26.2173 28.6875 26.2173H17C16.4132 26.2173 15.9375 25.7416 15.9375 25.1548Z" fill="black"/>
</svg>
